<?xml version="1.0" encoding="UTF-8" standalone="no"?>
<svg
   xmlns:dc="http://purl.org/dc/elements/1.1/"
   xmlns:cc="http://creativecommons.org/ns#"
   xmlns:rdf="http://www.w3.org/1999/02/22-rdf-syntax-ns#"
   xmlns:svg="http://www.w3.org/2000/svg"
   xmlns="http://www.w3.org/2000/svg"
   id="svg17"
   version="1.1"
   height="1024"
   width="1024">
  <metadata
     id="metadata23">
    <rdf:RDF>
      <cc:Work
         rdf:about="">
        <dc:format>image/svg+xml</dc:format>
        <dc:type
           rdf:resource="http://purl.org/dc/dcmitype/StillImage" />
      </cc:Work>
    </rdf:RDF>
  </metadata>
  <defs
     id="defs21" />
  <style
     id="style2"><![CDATA[  #icon * { fill: #ffffff !important; } ]]></style>
  <g
     id="g7">
    <title
       id="title4">background</title>
    <rect
       x="-1"
       y="-1"
       width="582"
       height="402"
       id="canvas_background"
       fill="none" />
  </g>
  <g
     id="g15">
    <title
       id="title9">Layer 1</title>
    <g
       id="icon">
      <polygon
         id="polygon4"
         points="28.6 61.3 25.8 59.7 36.3 41.5 39.1 43.1 47.9 27.8 47.9 9.5 46 9.5 3.9 82.5 4.8 84.1 20.7 74.9"
         transform="translate(112,112) scale(8) " />
      <polygon
         id="polygon6"
         points="22.8 78.6 6.9 87.8 7.9 89.4 31 89.4 37.4 85.7 64.5 85.7 70.9 89.4 92.1 89.4 93.1 87.8 77.2 78.6"
         transform="translate(112,112) scale(8) " />
      <polygon
         id="polygon8"
         points="52.1 9.5 52.1 27.8 60.5 42.3 63.3 40.7 73.8 58.9 71 60.5 79.3 74.9 95.2 84.1 96.1 82.5 54 9.5"
         transform="translate(112,112) scale(8) " />
    </g>
  </g>
</svg>
